<svg width="669" height="400" viewBox="0 0 669 400" fill="none" xmlns="http://www.w3.org/2000/svg">
<defs>
    <style type="text/css"><![CDATA[
    .cuts { fill:#808080; cursor:pointer; }
    .cuts.active { fill:#780001; }
    .cuts:hover { opacity:0.7; }
    ]]></style>
  </defs>

<g clip-path="url(#clip0)">
<path d="M50.1896 340.076C49.6839 341.467 49.3047 342.857 48.9254 344.248C47.7876 348.546 46.9027 352.845 46.2705 357.269C46.2705 357.396 46.2705 357.522 46.2705 357.649C45.8913 359.924 45.6384 362.326 45.2592 364.602C45.0063 366.625 44.6271 368.774 44.3742 370.796C43.8685 374.083 43.3628 377.497 44.1214 380.657C45.512 386.726 50.1896 402.908 59.4185 399.368C64.2225 397.472 77.7497 399.747 80.6574 399.368C83.5651 398.989 78.7611 394.185 75.4741 388.748C72.1871 383.186 69.2794 372.566 69.6587 365.613C69.6587 365.108 69.7851 364.602 69.7851 364.096C69.7851 363.97 69.7851 363.717 69.7851 363.59C69.7851 363.211 69.9115 362.705 69.9115 362.326C69.9115 362.2 69.9115 361.947 70.0379 361.821C70.1643 361.315 70.1643 360.809 70.2908 360.303C70.2908 360.177 70.4172 359.924 70.4172 359.798C70.5436 359.292 70.67 358.66 70.7965 358.028C70.7965 357.901 70.9229 357.649 70.9229 357.522C71.0493 356.89 71.1757 356.258 71.3021 355.499C71.3021 355.373 71.3021 355.247 71.4286 355.12C71.555 354.362 71.8078 353.603 71.9343 352.845C71.9343 352.718 71.9343 352.592 72.0607 352.592C72.3135 351.833 72.4399 350.948 72.6928 350.19V350.063C72.9456 349.178 73.1985 348.293 73.4513 347.408C74.3363 344.754 75.3477 342.099 76.4855 339.697C65.1075 339.317 56.5107 337.927 50.9482 336.662C50.8217 337.927 50.5689 339.065 50.1896 340.076Z" fill="#4D4D4D"/>
<path d="M379.52 213.527C274.336 207.585 183.186 215.929 152.971 219.343C156.005 233.881 162.453 247.788 170.544 259.418C179.14 262.832 187.611 267.509 195.828 272.187C199.241 274.083 202.528 275.98 205.815 277.75C209.482 279.772 213.022 281.795 216.814 283.312C220.607 284.829 224.4 286.094 228.445 286.979C235.019 288.622 241.719 289.76 248.293 291.53C251.075 292.288 253.982 293.173 256.511 294.69C258.66 295.828 260.809 299.241 262.832 299.874C267.13 301.138 272.314 295.828 275.474 293.805C279.14 291.403 283.312 289.633 287.484 287.863C291.783 286.22 296.081 284.703 300.126 283.186C304.425 281.542 308.597 280.025 312.895 278.635C317.193 277.244 321.492 275.853 325.79 274.463C327.434 273.957 329.077 273.451 330.721 273.072C332.364 272.566 334.008 272.187 335.651 271.808C349.81 268.647 364.475 269.785 378.635 272.566C381.037 273.072 383.312 273.578 385.588 274.21C387.737 261.82 388.496 240.455 379.52 213.527Z" class="cuts"/>
<path d="M58.2806 270.417C57.9014 271.681 57.5221 272.946 56.89 274.336C56.005 276.359 54.7408 278.129 53.603 280.025C53.0973 280.91 52.718 281.922 52.3388 282.807C48.799 291.783 49.9368 302.149 50.5689 311.757C50.6953 313.022 50.6953 314.286 50.8217 315.55C50.8217 316.561 50.9481 317.699 51.0746 318.711C51.0746 319.09 51.0746 319.343 51.201 319.722C55.3729 320.86 67.6359 323.767 86.8521 323.262V324.779C90.7711 317.826 92.7939 310.619 92.7939 310.619C101.264 307.333 105.689 289.381 105.689 289.381C105.689 291.909 107.838 305.942 115.171 316.561C117.067 319.216 118.71 321.997 120.228 324.905C123.894 325.158 136.536 325.917 153.35 323.135C153.35 323.009 153.224 322.882 153.224 322.756C153.224 322.63 153.097 322.377 153.097 322.25C152.971 321.745 152.718 321.365 152.592 320.986C150.063 314.412 151.833 304.425 157.396 296.081C157.901 295.322 158.281 294.564 158.66 293.805C158.786 293.679 158.786 293.426 158.913 293.3C159.166 292.668 159.418 292.035 159.671 291.403C159.671 291.277 159.798 291.024 159.798 290.898C160.051 290.139 160.303 289.507 160.43 288.748C160.43 288.622 160.43 288.622 160.43 288.496C161.441 284.45 161.947 280.152 162.453 276.359L162.326 276.233C126.169 249.558 76.9911 263.464 58.2806 270.417Z" class="cuts"/>
<path d="M269.279 133.123C227.56 127.813 208.976 148.673 195.449 163.97C190.139 169.911 185.461 175.095 180.405 177.623C175.727 179.772 171.429 180.657 167.509 180.657C162.2 180.657 157.775 179.14 154.235 177.497C150.695 188.875 150.19 200.758 151.833 212.516C171.302 210.367 216.561 206.068 274.842 204.804C271.049 176.612 269.532 152.592 269.279 133.123Z" class="cuts"/>
<path d="M401.391 281.29C402.023 283.186 402.276 285.461 402.655 287.358C402.908 288.496 403.161 289.633 403.666 290.518C406.574 296.081 402.908 305.183 405.815 311.378C406.321 312.389 406.574 313.401 406.953 314.412C407.08 314.665 407.08 314.918 407.206 315.297C407.459 316.182 407.585 317.067 407.712 317.952C407.712 318.078 407.712 318.331 407.838 318.458C414.918 319.848 423.135 320.101 431.353 320.354C431.606 318.584 431.732 315.171 431.732 315.171C432.364 313.78 433.249 296.46 433.755 294.564C434.766 290.898 436.283 289.507 436.283 289.507C436.283 289.507 435.145 308.976 436.283 320.48C446.144 320.733 456.005 321.239 464.728 323.767C465.107 323.262 465.487 322.756 465.866 322.25C465.992 322.124 466.119 321.871 466.245 321.745C466.751 320.986 467.13 320.228 467.509 319.343C467.636 319.216 467.636 319.09 467.636 318.837C467.889 318.078 468.268 317.193 468.521 316.435C468.521 316.309 468.647 316.182 468.647 315.929C468.9 315.044 469.153 314.033 469.279 313.148C469.279 312.895 469.406 312.769 469.406 312.516C469.785 310.62 469.911 308.597 470.038 306.827C470.038 306.7 470.038 306.448 470.038 306.321C470.038 305.436 470.164 304.551 470.164 303.666C470.164 303.54 470.164 303.54 470.164 303.413C470.164 300.759 470.164 298.609 470.164 297.472C470.164 294.564 472.693 291.403 480.025 289.128C481.037 288.875 482.048 288.496 483.186 288.243C483.312 288.243 483.439 288.243 483.439 288.116C484.576 287.863 485.714 287.611 486.978 287.358C499.874 285.209 494.69 282.554 509.734 265.36C510.619 264.349 511.378 263.464 512.01 262.453C512.263 262.2 512.389 261.947 512.642 261.568C513.148 260.936 513.654 260.177 514.033 259.545C514.159 259.292 514.412 259.039 514.539 258.66C515.044 257.901 515.423 257.143 515.803 256.258C515.803 256.132 515.929 256.005 515.929 255.879C516.435 254.994 516.814 254.109 517.067 253.224C517.193 253.097 517.193 252.845 517.193 252.718C517.446 251.96 517.699 251.327 517.952 250.569C517.952 250.316 518.078 250.19 518.078 249.937C518.331 249.178 518.458 248.42 518.584 247.788C518.584 247.661 518.584 247.661 518.584 247.535C518.963 245.891 519.216 244.248 519.216 242.731V242.604C519.469 239.317 519.343 236.536 519.469 234.26C519.469 232.743 519.722 231.479 520.101 230.468C479.014 222.124 437.042 217.067 396.839 214.159C406.068 244.88 404.045 268.268 401.391 281.29Z" class="cuts active"/>
<path d="M439.949 341.467C439.949 342.099 440.076 342.731 440.076 343.363C440.076 343.489 440.076 343.742 440.076 343.869C440.202 344.627 440.202 345.386 440.329 346.144C441.846 356.005 438.812 365.74 438.432 375.221C438.053 384.703 437.295 384.071 437.295 387.737C437.295 391.403 441.34 394.311 452.339 395.449C463.338 396.587 472.187 396.207 473.957 395.449C475.853 394.69 471.808 386.22 467.004 378.635C462.2 370.923 459.671 363.97 458.913 356.637C458.786 355.752 458.786 354.614 458.66 353.477C458.66 353.097 458.66 352.718 458.533 352.465C458.533 352.212 458.533 351.96 458.533 351.58C458.407 348.925 458.281 346.018 458.407 342.857V342.731C458.407 341.972 458.533 341.34 458.533 340.582C458.533 340.076 458.66 339.697 458.66 339.191C453.097 337.8 446.523 337.295 439.57 337.042C439.823 338.306 439.823 339.697 439.949 341.467Z" fill="#4D4D4D"/>
<path d="M408.723 340.961C408.723 341.846 408.723 342.731 408.723 343.616C408.723 343.995 408.723 344.374 408.723 344.754C408.723 345.512 408.723 346.271 408.723 347.029C408.723 347.661 408.723 348.167 408.723 348.799C408.723 349.431 408.723 349.937 408.723 350.569C408.723 351.707 408.723 352.845 408.597 353.982C408.597 354.362 408.597 354.741 408.597 355.12C408.597 355.879 408.47 356.637 408.47 357.396C408.47 357.775 408.47 358.154 408.344 358.66C408.344 359.419 408.217 360.177 408.091 360.809C408.091 361.188 407.965 361.441 407.965 361.821C407.838 362.832 407.712 363.843 407.585 364.728C406.068 372.44 403.919 375.348 406.827 376.865C409.734 378.382 411.631 382.68 413.401 384.197C415.297 385.714 425.917 388.243 432.111 388.243C438.306 388.243 434.26 386.094 434.008 380.91C433.628 375.727 429.204 353.224 427.434 342.225C427.181 340.455 427.054 338.559 427.181 336.662C420.86 336.41 414.539 336.157 408.344 335.272C408.597 337.042 408.723 339.065 408.723 340.961Z" fill="#4D4D4D"/>
<path d="M131.732 350.442C131.858 351.327 131.858 352.212 131.858 353.097C131.858 353.603 131.858 353.982 131.858 354.488C131.985 357.269 132.364 360.051 133.881 362.2C134.134 362.579 134.387 362.958 134.766 363.211C135.651 364.096 136.662 364.728 137.547 365.613C138.18 366.119 138.685 366.624 139.064 367.257C142.351 371.429 143.236 377.876 148.167 379.646C149.684 380.278 151.58 380.405 153.477 380.405C156.637 380.405 159.924 379.899 162.705 380.025C176.233 380.784 180.278 380.025 180.278 377.37C180.278 374.716 180.657 374.463 175.474 372.693C170.291 370.796 169.659 365.74 164.475 356.89C164.223 356.384 163.843 355.879 163.59 355.246C163.464 354.867 163.211 354.614 163.085 354.235C162.958 353.982 162.832 353.729 162.705 353.477C162.453 352.971 162.326 352.465 162.073 351.96C162.073 351.833 161.947 351.707 161.947 351.58C161.694 350.948 161.441 350.316 161.188 349.684C159.924 346.397 158.786 342.731 157.775 339.064C146.018 341.087 135.904 341.719 128.698 341.719C130.215 344.501 131.226 347.155 131.732 350.442Z" fill="#4D4D4D"/>
<path d="M667.383 79.646C665.866 75.2213 659.671 70.1644 655.247 65.7396C650.822 61.3148 634.766 48.5462 627.434 45.2592C620.101 41.9722 620.86 39.4438 617.952 34.6397C615.044 29.8357 602.149 20.354 595.575 18.4577C589.001 16.5613 591.53 12.6422 588.243 9.98738C584.956 7.45894 583.439 6.7004 578.761 1.89636C578.508 1.64351 578.129 1.39067 577.876 1.13782C576.865 0.252867 576.233 -0.1264 575.727 2.25324e-05C575.601 2.25324e-05 575.474 2.25361e-05 575.348 0.126445C574.336 0.632134 573.704 2.90773 571.176 4.67765C570.923 4.93049 570.544 5.05691 570.291 5.18333C565.487 7.71178 556.384 17.3199 551.96 21.239C548.925 24.0202 546.144 25.0316 542.857 25.0316C540.961 25.0316 538.812 24.7788 536.41 24.2731C530.594 23.1353 524.652 21.9975 518.837 21.239C517.32 21.1125 515.929 20.8597 514.412 20.7333C511.504 20.4804 508.47 20.354 505.436 20.4804C503.919 20.4804 502.402 20.6068 500.885 20.7333C498.483 20.9861 496.081 21.239 493.805 21.7446C491.53 22.2503 489.128 22.8824 486.979 23.7674C485.841 24.1467 484.703 24.6524 483.692 25.2845C480.784 26.8015 478.255 28.5715 475.348 29.9621C496.713 42.2251 539.064 75.2213 555.373 150.569C556.764 148.799 558.281 147.029 559.671 145.259C559.798 145.133 559.924 145.006 560.051 144.754C561.568 143.11 563.085 141.467 564.475 139.823C566.372 137.8 568.268 135.019 570.544 132.743C572.819 130.468 575.221 128.445 578.129 128.192C578.761 128.066 579.52 128.066 580.152 128.066C580.784 128.066 581.542 128.066 582.174 128.192C583.565 128.319 584.956 128.445 586.346 128.571C594.311 129.077 602.402 127.307 609.355 123.515C615.044 120.354 619.848 115.929 625.158 112.263C626.169 111.504 627.307 110.746 628.571 110.114C630.973 108.723 633.628 107.333 636.41 106.574C637.8 106.195 639.064 106.068 640.455 106.068C641.087 106.068 641.719 106.068 642.351 106.195C643.489 106.321 644.627 106.448 645.638 106.448C646.144 106.448 646.65 106.448 647.156 106.448C648.546 106.321 649.937 105.942 651.327 104.804C651.833 104.425 652.339 103.919 652.845 103.287C655.752 100 662.705 94.0582 665.74 91.1505C668.521 88.1163 668.9 84.0708 667.383 79.646Z" fill="#4D4D4D"/>
<path d="M457.522 39.6965C456.764 40.2022 456.005 40.8343 455.247 41.4664L455.12 41.5929C454.235 42.3514 453.35 42.9835 452.592 43.742C444.121 51.4538 441.972 52.9709 425.032 56.89C422.377 57.5221 419.595 58.1542 416.941 58.7863C415.929 59.0391 414.791 59.292 413.78 59.5448C412.389 59.7977 410.999 60.1769 409.608 60.4298C372.187 135.145 378.003 159.671 394.058 205.057C394.311 205.815 394.564 206.7 394.817 207.459C436.789 210.367 480.784 215.676 523.641 224.526C525.917 218.837 528.951 209.987 531.479 201.643C531.479 201.643 531.479 201.643 531.479 201.517C532.111 199.621 532.617 197.851 533.123 196.081C533.123 195.954 533.123 195.954 533.123 195.828C533.376 194.943 533.628 194.058 533.881 193.3V193.173C534.134 192.415 534.26 191.656 534.513 191.024C534.513 190.898 534.64 190.771 534.64 190.645C534.893 189.886 535.019 189.128 535.272 188.496C535.272 188.496 535.272 188.496 535.272 188.369C535.398 187.737 535.525 187.105 535.777 186.599C535.777 186.473 535.904 186.346 535.904 186.22C536.03 185.588 536.157 185.082 536.283 184.576C536.283 184.576 536.283 184.576 536.283 184.45C536.41 183.944 536.536 183.565 536.536 183.186C536.536 183.059 536.536 182.933 536.536 182.807C536.662 182.427 536.662 182.048 536.789 181.669C536.915 181.163 536.915 180.657 537.042 180.152C537.042 180.025 537.168 179.899 537.168 179.899C537.295 179.52 537.421 179.014 537.547 178.635C537.674 178.382 537.674 178.255 537.8 178.002C537.927 177.623 538.053 177.244 538.18 176.865C538.306 176.612 538.432 176.233 538.559 175.98C538.685 175.727 538.812 175.348 538.938 175.095C539.064 174.715 539.317 174.463 539.444 174.083C539.57 173.831 539.697 173.578 539.823 173.198C540.076 172.819 540.202 172.44 540.455 172.061C540.582 171.808 540.708 171.555 540.834 171.302C541.087 170.923 541.34 170.544 541.593 170.164C541.593 170.164 541.593 170.038 541.719 170.038C526.675 69.4058 462.958 41.8457 457.522 39.6965Z" class="cuts active"/>
<path d="M281.922 204.551C311.125 204.046 343.363 204.425 376.991 206.321C362.073 163.843 356.384 134.513 388.875 65.3604C388.496 65.4868 387.99 65.6132 387.611 65.7396H387.484C385.461 66.2453 383.312 66.8774 381.29 67.5095C379.14 68.1416 376.991 68.7738 374.716 69.5323C356.764 75.3477 342.478 76.4855 332.87 77.244C323.388 78.0026 306.827 77.244 295.828 79.3932C294.943 79.5196 293.932 79.7725 292.92 79.8989C292.668 79.8989 292.415 80.0253 292.162 80.0253C291.15 80.1518 290.013 80.2782 288.875 80.4046C287.737 80.531 286.473 80.531 285.209 80.6574C284.956 80.6574 284.703 80.6574 284.45 80.6574C283.186 80.6574 281.922 80.7839 280.531 80.7839C280.025 80.7839 279.52 80.7839 278.887 80.7839C277.37 93.5525 272.946 138.306 281.922 204.551Z" class="cuts"/>
<path d="M165.107 134.64C147.788 153.224 145.259 159.545 152.718 166.625L156.511 170.291L156.384 170.544C160.936 172.946 168.521 175.221 177.244 171.049C181.037 169.279 185.209 164.602 190.013 159.166C203.793 143.742 224.399 120.607 269.153 125.917C269.153 103.413 270.796 87.9899 271.808 80.4046C269.785 80.4046 267.889 80.2782 265.866 80.1518C262.958 80.0253 260.177 79.8989 257.396 79.7725C257.396 79.7725 257.396 79.7725 257.269 79.7725C256.005 79.6461 254.741 79.6461 253.603 79.5196C253.35 79.5196 253.097 79.5196 252.971 79.5196C251.707 79.3932 250.569 79.3932 249.305 79.2668C233.881 78.129 208.217 77.3705 196.46 75.9798C196.081 75.9798 195.575 75.8534 195.196 75.8534C193.552 83.1859 188.496 102.655 178.761 118.078C175.348 123.641 170.417 128.951 165.107 134.64Z" class="cuts"/>
<path d="M19.9747 179.393C23.1352 158.66 24.0202 129.077 36.0303 112.389C39.3173 105.436 40.7079 104.172 42.225 101.643C45.6384 95.9545 49.5575 90.6447 54.1087 85.7143C60.4298 78.761 68.7737 73.3249 77.6232 68.7737C74.0834 69.6586 70.4172 70.7964 66.8773 72.3135C66.8773 72.3135 15.0442 83.4387 12.3893 136.157C9.60806 188.875 9.48164 198.736 3.28695 214.412C-2.90774 230.088 1.64346 240.834 3.28695 251.58C4.93044 262.326 3.28695 270.164 3.28695 270.164C3.28695 270.164 27.6864 254.994 23.8938 235.398C20.1011 215.803 15.5499 207.838 19.9747 179.393Z" fill="#4D4D4D"/>
<path d="M159.166 73.957C159.039 73.957 159.039 73.957 158.913 73.957C158.028 73.957 157.269 73.957 156.511 73.8306C156.005 73.8306 155.499 73.8306 155.12 73.8306C154.488 73.8306 153.982 73.8306 153.35 73.7042C152.718 73.7042 152.086 73.7042 151.454 73.5777C151.075 73.5777 150.695 73.5777 150.316 73.5777C149.305 73.5777 148.42 73.4513 147.535 73.4513C134.387 72.6928 120.86 70.4172 107.965 69.9115C106.827 69.9115 105.815 69.7851 105.057 69.6586C104.804 69.6586 104.678 69.5322 104.425 69.5322C90.3919 74.7155 71.8078 83.3123 62.579 93.426C59.292 97.0923 56.2579 101.011 53.603 105.183C51.9596 107.838 47.6612 113.654 46.1441 119.216C39.4438 143.489 36.6625 168.647 37.1682 193.679C36.2832 204.425 37.6738 215.424 40.5816 226.296C41.0872 228.066 41.7194 229.836 42.4779 231.606C42.8572 232.491 43.2364 233.249 43.7421 234.134C43.8685 234.387 43.995 234.64 44.1214 234.893C44.5006 235.525 44.7535 236.03 45.1328 236.662C45.2592 236.915 45.3856 237.168 45.6384 237.421C46.0177 238.053 46.397 238.685 46.7762 239.317C46.9027 239.444 47.0291 239.697 47.0291 239.823C48.9254 242.731 51.0746 245.512 52.8445 248.42L52.9709 248.546C53.3502 249.178 53.7295 249.81 54.1087 250.316C54.2352 250.442 54.2352 250.569 54.3616 250.695C54.7408 251.327 55.1201 251.833 55.373 252.465C55.373 252.465 55.373 252.465 55.373 252.592C56.1315 253.856 56.7636 255.247 57.2693 256.511C57.2693 256.511 57.2693 256.637 57.3957 256.637C57.6486 257.143 57.775 257.649 57.9014 258.154C58.0278 258.407 58.0278 258.66 58.1542 258.913C58.2807 259.418 58.4071 259.924 58.5335 260.43C58.6599 260.683 58.6599 261.062 58.6599 261.315C58.7864 261.694 58.7864 262.073 58.7864 262.453C66.751 259.671 78.5082 256.258 92.0354 254.362C114.918 251.201 135.398 253.856 152.592 261.82C137.421 236.536 129.583 204.046 137.674 174.589C122.63 155.626 140.708 136.283 152.971 123.262C157.649 118.205 162.073 113.527 164.728 109.229C172.187 97.4715 176.485 82.3009 178.382 74.5891C172.061 74.4627 165.36 74.2098 159.166 73.957Z" class="cuts"/>
</g>
<defs>
<clipPath id="clip0">
<rect width="668.268" height="400" fill="white"/>
</clipPath>
</defs>
</svg>
