<svg width="215" height="77" viewBox="0 0 215 77" fill="none" xmlns="http://www.w3.org/2000/svg">
<path d="M91.2002 28.6C90.8002 28 90.0002 27.2 88.3002 27.2C88.0002 27.2 87.8002 27.2 87.5002 27.3C85.1002 27.6 82.7002 28.3 80.5002 29.3C71.8002 33.4 64.5002 39.7 58.1002 45.3C56.8002 46.5 55.4002 47.7 54.2002 48.9C53.8002 49.2 53.5002 49.6 53.1002 49.9C54.2002 48.2 55.5002 46.5 56.7002 45C57.4002 44 58.2002 43 58.9002 42C61.1002 38.9 63.5002 35.5 65.6002 32C66.8002 29.9 66.8002 27.8 65.6002 26.4C65.0002 25.6 64.1002 25.3 63.1002 25.3C62.3002 25.3 61.5002 25.5 60.5002 26C60.1002 26.2 59.7002 26.3 59.4002 26.5C56.9002 27.6 54.3002 28.7 52.0002 30.2C45.4002 34.4 39.7002 40.1 35.1002 44.7C33.8002 46 32.4002 47.4 31.1002 48.7L29.0002 50.8L29.3002 50.3C29.4002 50.1 29.5002 49.9 29.7002 49.7C30.0002 49.2 30.3002 48.8 30.6002 48.3C34.4002 42.8 38.1002 37.4 40.4002 31.1C41.4002 28.4 42.4002 25.2 40.6002 22.1C39.4002 20 37.5002 18.4 34.5002 17.1C29.7002 14.9 24.5002 13.8 19.5002 12.7C18.0002 12.4 16.4002 12 14.9002 11.7L14.7002 11.6C11.3002 10.8 7.7002 10 4.6002 8.1C2.4002 6.8 1.6002 5.4 1.8002 3.7C2.0002 1.9 2.8002 0.7 3.0002 0.3V0C3.0002 0 1.5002 0.7 1.3002 0.9C0.100195 2.4 -0.299805 4 0.100195 5.9C0.900195 9.6 3.8002 11.4 6.4002 12.7C10.0002 14.4 13.9002 15.2 17.6002 16C19.2002 16.3 20.9002 16.7 22.5002 17.1C26.6002 18.2 29.9002 19.1 33.0002 20.2C35.5002 21 37.3002 22.5 38.4002 24.6C40.0002 27.7 38.9002 30.7 37.7002 33.1C33.3002 41.7 27.6002 49.5 22.0002 57C21.5002 57.7 20.9002 58.4 20.3002 59.1C19.8002 59.7 19.2002 60.4 18.7002 61.1C18.5002 61.4 17.8002 62.2 17.9002 62.3C20.2002 62.6 20.2002 62.2 20.3002 62.1C20.5002 61.8 21.9002 60.3 22.6002 59.5C24.3002 57.6 26.1002 55.6 27.8002 53.6C33.0002 47.8 40.0002 40.3 48.4002 34.1L48.9002 33.7C52.1002 31.3 55.5002 28.8 59.5002 27.8C59.8002 27.7 60.2002 27.7 60.5002 27.7C61.4002 27.7 62.2002 28 62.6002 28.7C63.1002 29.3 63.2002 30.2 62.9002 31.2C62.2002 33.5 61.4002 35.2 60.3002 36.6C59.6002 37.6 58.9002 38.5 58.3002 39.5C53.3002 46.6 48.0002 54.1 41.8002 60.9C41.6002 61.1 41.3002 61.4 40.8002 62.1C40.7002 62.2 42.9002 62.3 43.1002 62.1L43.8002 61.3C50.4002 54.1 57.3002 46.7 65.3002 40.8C70.0002 37.3 75.0002 34 79.2002 31.3C81.4002 29.9 83.4002 29.2 85.5002 29.2C85.6002 29.2 85.8002 29.2 85.9002 29.2C87.0002 29.3 87.9002 29.6 88.3002 30.3C88.8002 31 88.8002 31.9 88.4002 33C87.2002 36.5 84.9002 39.3 82.6002 42L82.3002 42.3C77.0002 48.7 72.4002 54.6 68.6002 61.3C67.1002 63.9 65.6002 67.1 65.8002 70.8C65.9002 72.8 66.5002 75.4 68.5002 76.9C68.8002 77.2 70.1002 74.9 70.2002 74.5C70.3002 74 70.0002 73.8 69.8002 73.2C69.6002 72.3 69.3002 71.5 69.2002 70.6C68.7002 67 70.1002 63.9 71.9002 60.5C75.6002 53.4 80.8002 47.1 85.8002 41L86.3002 40.4C88.2002 38.1 89.9002 35.4 91.3002 32.6C91.8002 31.1 91.8002 29.6 91.2002 28.6Z" fill="white"/>
<path d="M214.2 34.7H211.4C207.6 34.7 203.7 34.8 200 34.9L195.9 35C195.8 35 195.6 35 195.5 35H194.9C195.3 34.5 195.7 34.1 196 33.6C197 32.5 197.9 31.4 198.7 30.3C199.8 28.9 200.3 27.5 200.2 25.9C200.1 24.5 199.5 23.8 198.1 23.7C196.1 23.5 194.3 24.4 192.9 25.3C189 27.7 186 30.7 183.3 33.9C183 34.3 182.4 34.9 182.4 34.9C180.9 34.9 170.1 35 170 35L170.3 34.6C170.5 34.4 170.6 34.2 170.8 34C171.3 33.4 171.8 32.7 172.3 32.1C173.4 30.6 174.6 29.1 175.7 27.6C177.1 25.6 177.9 23.9 177.7 21.8C177.5 19.9 176.5 19.1 174.7 19.5C171.5 20.1 169 22 166.7 23.9C163.4 26.7 160.4 30 157.6 34C153.6 39.7 151.1 45 149.5 49.7C149 51.2 149 51.1 149 51.1C147.6 51.9 146.4 52.2 145.4 52.3C144.7 52.4 143.8 52.2 143.5 51.3C143.2 50.5 143.4 49.8 144.1 49C145.1 47.9 146.4 47.2 148 46.8C148.6 46.7 149.2 46.6 149.7 46.4C150 46.3 150 46.3 150.3 46.3C150.3 46.3 150.9 45.5 150.6 45.5C150.4 45.5 148.8 45.7 148.5 45.8C147.4 46.1 146.4 46.4 145.4 46.8C143.6 47.5 141.3 49.5 141.3 49.5C139 51 136.7 52.1 135.8 52.4C135.2 52.6 134.6 52.8 134.5 52.6C134.2 52.4 134.3 52.2 134.7 51.3C134.9 50.7 136.3 47.9 136.1 46.7C135.9 46 135.2 46 135.2 46C133.4 45.8 130.3 48.5 128.3 50.3C127.5 51 127 51.4 126.4 51.8C126.4 51.7 129.1 48.5 129.6 47.8C129.8 47.5 129.1 47 129 47C128.6 47 128.3 47.2 128 47.4C127.9 47.5 127.7 47.6 127.5 47.7C124 49.7 120.2 51.7 115.9 52.6C115.1 52.8 114.2 52.7 113.3 52.4C112.8 52.3 112.5 52 112.4 51.6C119 49.5 121.2 47.4 120.8 46.6C120.5 45.9 119.8 45.6 118.2 45.7C116.8 45.8 114.4 46.4 111.7 48.7C111 49.3 110.1 50.3 109.9 51.1C108.1 51.6 106.5 52 104.7 52.1C104.2 52.1 103.4 52.2 103.1 51.8C103.1 51.7 102.4 51.1 105 48.3C105.4 47.9 106.6 46.9 106.5 46.7C106.5 46.7 105.9 45.9 105.5 45.9C104.3 46 103.2 46.2 102 46.3C102.8 45.3 103.2 44.6 102.9 44.1C102.7 43.7 102.3 43.6 101.6 43.6C101.2 43.6 100.7 43.7 100.7 43.7C100.7 43.7 100.1 43.8 99.3004 44.5C98.9004 44.8 97.3004 46 97.4004 47.2C97.4004 47.6 97.8004 47.8 98.4004 48C98.5004 48 98.6004 48.1 98.7004 48.1H98.9004C98.9004 48.1 99.0004 48.1 99.1004 48.1C93.9004 51.7 91.8004 51.6 91.4004 51.6C90.4004 51.7 89.9004 51.4 89.5004 51C89.5004 50.9 89.7004 50.8 89.8004 50.7C89.9004 50.5 90.0004 50.4 90.1004 50.2C90.3004 50 90.4004 49.7 90.6004 49.5C91.0004 48.9 91.4004 48.3 91.7004 47.6C91.9004 47.1 92.0004 46.3 91.7004 45.8C91.4004 45.4 90.6004 45 89.4004 45.5C88.1004 46.1 87.2004 48.6 87.6004 50C87.8004 50.8 88.0004 51.1 88.1004 51.3C87.5004 52.1 85.7004 52.9 84.5004 53.2C84.0004 53.3 83.2004 53.4 83.0004 53.1C82.7004 52.6 82.9004 51.7 83.6004 50.4C85.7004 46.9 88.5004 45.9 88.5004 45.9C88.5004 45.9 87.1004 45.6 86.8004 45.9C84.1004 47.4 82.8004 49.2 81.5004 51.6C81.1004 52.3 81.0004 53.6 81.3004 54.2C81.6004 54.7 82.3004 54.9 83.2004 54.9C83.8004 54.9 84.4004 54.8 84.8004 54.6C86.4004 53.9 87.4004 53.2 88.7004 51.9C89.0004 52.1 89.3004 52.2 89.6004 52.3C90.1004 52.4 90.8004 52.4 91.4004 52.3C94.2004 51.9 97.5004 50.5 100.5 48.1C100.8 48.1 102.6 47.8 104.1 47.5C103.9 47.8 103.7 48 103.5 48.3C102.9 49 102.5 49.6 102 50.2C101.5 50.8 100.7 52 101.5 53C101.8 53.4 102.3 53.6 102.9 53.6C103.4 53.6 104.9 53.3 105.4 53.2C106.8 52.8 107.2 52.7 108.6 52.3L110.2 51.9C110.6 53.8 113.5 54.6 118.2 52.9C118.6 52.7 123.5 50.6 125.2 49.7C125.7 49.4 126.2 49.2 126.5 49C126.8 48.8 126.9 48.8 126.9 48.8C126.6 49.1 124.7 51.2 124.7 51.2C124.5 51.4 123.1 52.8 123.8 53.5C123.8 53.5 124.1 53.9 124.8 53.9C125.4 53.9 126.7 52.8 127 52.5L128.3 51.4C131.4 48.6 133.4 47.1 134.1 47.1C134.2 47.1 134.4 47.1 134.4 47.3C134.8 48.1 132.5 51.4 132.3 51.9C132 52.5 132.3 52.9 132.5 53.2C132.7 53.5 133.1 53.6 133.7 53.6C134.7 53.5 135.1 53.5 136.2 53.2C137.3 52.8 138.7 52.1 139.8 51.5C140.3 51.2 141.1 50.7 142 50.2C142 50.2 141.4 53.1 144.1 53.2C144.5 53.2 146.7 53 148.9 52C148.9 52.4 148.5 55.4 148.4 56.5C148.4 57.1 148.5 57.5 148.7 57.7C148.9 57.9 149.2 58 149.5 58H149.6C150.6 58 150.6 57.2 150.6 56.6C150.6 56.6 150.8 53.1 151 51.9C151.1 51.4 151.2 50.8 151.2 50.8C156.3 47.5 161.9 43 167.6 37.3C168 36.9 168.7 36.1 168.7 36.1C170.4 36.1 181.3 36.3 181.4 36.3C181.4 36.3 181 37 180.9 37.1L178.3 41C175.9 44.8 173.1 49.4 173.1 49.4C171.4 50.3 168.7 51.7 166.9 52.2C166.4 52.3 166 52.3 165.8 52.1C165.6 51.9 165.6 51.7 165.6 51.3C165.6 51.3 165.6 51.3 165.6 51.2C165.6 51.1 165.6 51 165.7 50.9C165.8 50.4 166 49.9 166.2 49.5C166.3 49.2 166.4 49 166.4 48.9C166.4 48.8 166.4 48.7 166.4 48.7C166.4 48.6 166.3 48.6 166.2 48.6C166 48.6 165.7 48.7 165.6 48.8C165.4 48.9 165.3 49.1 165.1 49.4C164.8 49.9 164.3 50.5 163.6 51C163.5 51.1 163.3 51.2 163.1 51.3C162.4 51.8 161.3 52.5 160.4 52.5C159.9 52.5 159.5 52.3 159.2 51.7C159.1 51.5 159.2 50.6 159.5 50.1C160.7 48.3 162.4 46.9 164.8 45.9C165.5 45.6 166 45.5 166.5 45.5C166.7 45.5 167 45.5 167.1 45.8C167.2 45.9 167.2 46.4 166.3 47.3C166.1 47.5 165.9 47.8 165.9 48V48.1H166C166.1 48.1 166.1 48.1 166.2 48.1C166.4 48.1 166.6 48.1 166.8 48.1L167 48C167.5 47.7 168 47.4 168.3 46.9C168.6 46.4 168.8 45.6 168.7 45.2C168.5 44.8 167.7 44.5 167.2 44.5C166.1 44.7 164.9 44.9 163.8 45.4C161 46.8 159 48.4 157.7 50.5L157.6 50.7C157.1 51.4 156.6 52.2 157.2 53.2C157.5 53.7 158 53.9 158.6 53.9C158.9 53.9 159.2 53.8 159.6 53.7C160.9 53.3 162.7 52.8 164.5 51.5C164.5 51.8 164.5 52 164.5 52.3C164.5 52.7 164.5 53 164.7 53.2C164.9 53.4 165.2 53.4 165.7 53.4C166.3 53.3 167 53.2 167.9 52.9C168.9 52.6 173 50.7 173 50.7C172.3 53.2 174.3 55.9 174.4 55.9C177.1 58.8 180.1 59.4 182.1 59.4C185.3 59.4 187.8 58 188.2 57.2C188.3 57 188.3 56.9 188.2 56.8C188.1 56.7 188 56.6 187.7 56.6C187.3 56.6 186.9 56.7 186.9 56.7C185.6 57.7 184.9 57.9 183.8 58C180.2 58.3 177.6 57.5 176.2 55.7C174.3 53.4 174.8 50.1 174.9 49.7C175 49.6 186.4 42 192 37.1C192.4 36.7 192.9 36.4 192.9 36.4C195.1 36.4 199.6 36.4 204.3 36.4C206.1 36.4 208 36.4 209.8 36.3C211 36.3 212.2 36.2 213.1 36.2C214 36.2 214.6 34.6 214.6 34.6C214.6 34.6 214.7 34.6 214.2 34.7ZM197.8 28C196.8 30.8 194.7 32.8 192.8 34.6C192.7 34.7 192.5 34.9 192.5 34.9C190.7 34.9 188.9 34.9 187.1 34.9H184.1C187.1 31.5 189.6 28.6 192.8 26.5C193.5 26 194.4 25.5 195.3 25.3C195.6 25.2 195.9 25.2 196.2 25.2C196.8 25.2 197.3 25.3 197.5 25.6C198 26.2 198.1 27.3 197.8 28ZM190.6 36.8C186.1 41.2 180.5 45.6 175 49C175.4 48.2 177.1 45.5 177.8 44.3C179.1 42.2 182.2 37.5 182.2 37.5C182.4 37.2 182.8 36.6 182.8 36.6C184.4 36.6 190.1 36.8 190.6 36.8ZM165.4 35C165.4 35 163.9 35.7 164 35.9C164 35.9 167.3 36.2 167.5 36.2C167.5 36.2 156.4 46.8 151.5 49.9C151.6 49.2 152.5 46.9 152.9 45.7C156.2 37.4 161 30.3 167.2 24.5C168.7 23.1 170.6 21.5 173 21C173.2 20.9 173.5 20.9 173.7 20.9C174.3 20.9 174.7 21.1 175 21.4C175.3 21.8 175.5 22.4 175.4 23.1C175.1 25.6 173.9 27.8 172.7 29.6C171.8 31 170.7 32.3 169.2 34.1C168.9 34.5 168.5 34.9 168.5 34.9C168.3 34.9 167.4 34.9 167.1 34.9C166.9 34.9 166.7 34.9 166.5 34.9C166.2 34.9 165.8 34.9 165.4 35ZM112.1 50.7C112 50.2 113.6 48.5 115 47.8C117 46.8 117.7 46.9 118.3 46.9C119.1 46.9 119.4 47.1 119.4 47.5C119.4 48.8 112.1 50.7 112.1 50.7ZM102.1 45.1C102.1 45.6 101.8 46.1 101.2 46.6C99.5004 46.5 99.9004 46.2 99.9004 46.1C100.5 45.1 101.8 44.8 101.9 44.8C101.9 44.7 102 44.7 102.1 45.1ZM88.8004 50.3C88.3004 49.1 88.9004 47.8 89.5004 47.3C89.7004 47.2 89.9004 47 90.0004 47C90.0004 47 90.8004 46.8 90.3004 48C90.1004 48.6 89.7004 49.1 89.3004 49.7C89.1004 49.8 89.0004 50 88.8004 50.3Z" fill="white"/>
</svg>
