<svg width="44" height="48" viewBox="0 0 44 48" fill="none" xmlns="http://www.w3.org/2000/svg">
<g clip-path="url(#clip0)">
<path d="M9.99978 27.5C11.8998 26.4 12.5998 23.9 11.4998 22C10.3998 20.1 7.89978 19.4 5.99978 20.5C4.09978 21.6 3.39978 24.1 4.49978 26C5.59978 27.9 8.09978 28.6 9.99978 27.5ZM13.6998 29.6C13.1998 30.1 12.5998 30.5 11.9998 30.9C8.19978 33.1 3.29978 31.8 1.09978 28C-1.10022 24.2 0.199784 19.3 3.99978 17.1C7.19978 15.2 11.1998 15.9 13.6998 18.4L27.9998 10.1C26.9998 6.69999 28.4998 2.89999 31.6998 0.999992C35.4998 -1.20001 40.3998 0.0999918 42.5998 3.89999C44.7998 7.69999 43.4998 12.6 39.6998 14.8C36.4998 16.7 32.4998 16 29.9998 13.5L15.6998 21.8C16.0998 23.2 16.0998 24.7 15.6998 26.1L29.8998 34.3C32.3998 31.8 36.3998 31.1 39.5998 33C43.3998 35.2 44.6998 40.1 42.4998 43.9C40.2998 47.7 35.3998 49 31.5998 46.8C28.3998 44.9 26.8998 41.2 27.8998 37.7L13.6998 29.6ZM37.6998 11.5C39.5998 10.4 40.2998 7.89999 39.1998 5.99999C38.0998 4.09999 35.5998 3.39999 33.6998 4.49999C31.7998 5.59999 31.0998 8.09999 32.1998 9.99999C33.3998 11.9 35.7998 12.6 37.6998 11.5ZM33.5998 43.4C35.4998 44.5 37.9998 43.8 39.0998 41.9C40.1998 40 39.4998 37.5 37.5998 36.4C35.6998 35.3 33.1998 36 32.0998 37.9C30.9998 39.9 31.6998 42.3 33.5998 43.4Z" fill="#780001"/>
</g>
<defs>
<clipPath id="clip0">
<rect width="43.7" height="48" fill="white"/>
</clipPath>
</defs>
</svg>
