<svg width="51" height="48" viewBox="0 0 51 48" fill="none" xmlns="http://www.w3.org/2000/svg">
<g clip-path="url(#clip0)">
<path d="M44.2667 13.3333H40V1.33333C40 0.533333 39.4667 0 38.6667 0H12C11.2 0 10.6667 0.533333 10.6667 1.33333V13.3333H6.4C2.93333 13.3333 0 16.2667 0 19.7333V33.6C0 37.0667 2.93333 40 6.4 40H13.3333V46.6667C13.3333 47.4667 13.8667 48 14.6667 48H36C36.8 48 37.3333 47.4667 37.3333 46.6667V40H44.2667C47.7333 40 50.6667 37.0667 50.6667 33.6V19.7333C50.6667 16.2667 47.7333 13.3333 44.2667 13.3333ZM13.3333 2.66667H37.3333V13.3333H13.3333V2.66667ZM34.6667 45.3333H16V32H34.6667V45.3333ZM48 33.6C48 35.7333 46.4 37.3333 44.2667 37.3333H37.3333V30.6667C37.3333 29.8667 36.8 29.3333 36 29.3333H14.6667C13.8667 29.3333 13.3333 29.8667 13.3333 30.6667V37.3333H6.4C4.26667 37.3333 2.66667 35.7333 2.66667 33.6V19.7333C2.66667 17.6 4.26667 16 6.4 16H44.2667C46.4 16 48 17.6 48 19.7333V33.6Z" fill="#780001"/>
</g>
<defs>
<clipPath id="clip0">
<rect width="50.6667" height="48" fill="white"/>
</clipPath>
</defs>
</svg>
