<svg width="44" height="44" viewBox="0 0 44 44" fill="none" xmlns="http://www.w3.org/2000/svg">
<path d="M22 0C9.87112 0 0 9.87112 0 22C0 34.1289 9.87112 44 22 44C34.1289 44 44 34.1289 44 22C44 9.87112 34.1289 0 22 0ZM22 41.8998C11.0263 41.8998 2.10024 32.9737 2.10024 22C2.10024 11.0263 11.0263 2.10024 22 2.10024C32.9737 2.10024 41.8998 11.0263 41.8998 22C41.8998 32.9737 32.9737 41.8998 22 41.8998Z" fill="white"/>
<path d="M8.5585 13.8091C8.24346 14.2816 8.34847 14.9642 8.82103 15.2792L21.79 24.2052C22.2626 24.5203 22.9451 24.4153 23.2602 23.9427L32.2387 10.9212C32.5537 10.4487 32.4487 9.76611 31.9762 9.45107C31.5036 9.13604 30.821 9.24105 30.506 9.7136L22.105 21.8425L9.97616 13.494C9.5036 13.179 8.87353 13.3365 8.5585 13.8091Z" fill="white"/>
</svg>
