<svg width="101" height="54" viewBox="0 0 101 54" fill="none" xmlns="http://www.w3.org/2000/svg">
<g clip-path="url(#clip0)">
<path d="M64.1994 31.3C65.2994 29.3 68.9994 27 65.9994 27C64.0994 27 63.6994 27.5 62.2994 28.4C59.0994 30.2 57.0994 33.8 54.6994 32.9C48.6994 30.5 36.7994 27 35.3994 27C33.4994 27 32.8994 27.3 32.8994 28.1C32.8994 29.8 38.6994 29.4 46.0994 33.9C50.7994 36.8 51.9994 38.4 55.7994 41.5C57.1994 42.7 61.0994 44.7 61.9994 45.3L65.8994 37.1C64.8994 36.8 62.0994 35.4 64.1994 31.3Z" fill="white"/>
<path d="M99.1996 24H0.999594C-0.300406 24 -0.300406 24.3 0.899594 24.6L6.49959 26C7.69959 26.3 9.79959 26.6 11.0996 26.6H88.9996C90.2996 26.6 92.2996 26.3 93.5996 26L99.1996 24.6C100.5 24.3 100.4 24 99.1996 24Z" fill="white"/>
<path d="M73.3996 53.7L75.7996 40.7L67.3996 37.4L63.0996 46.9L73.3996 53.7Z" fill="white"/>
</g>
<path d="M26.736 14.192C30.128 14.192 32.304 11.472 32.304 8.416V8.384C32.304 5.328 30.128 2.608 26.736 2.608C23.344 2.608 21.168 5.328 21.168 8.384V8.416C21.168 11.472 23.344 14.192 26.736 14.192ZM26.752 13.872C23.632 13.872 21.52 11.264 21.52 8.4V8.368C21.52 5.488 23.584 2.928 26.72 2.928C29.84 2.928 31.952 5.536 31.952 8.4V8.432C31.952 11.312 29.888 13.872 26.752 13.872ZM35.1328 14H35.4848V9.12H39.5968H39.6448L43.3568 14H43.7888L40.0608 9.104C42.2208 8.976 43.7248 7.856 43.7248 5.968V5.936C43.7248 5.072 43.4368 4.368 42.9248 3.856C42.2368 3.168 41.1648 2.8 39.7088 2.8H35.1328V14ZM35.4848 8.8V3.12H39.6768C41.9968 3.12 43.3728 4.176 43.3728 5.952V5.984C43.3728 7.568 42.1248 8.8 39.5328 8.8H35.4848ZM46.7109 14H50.3109C53.8309 14 56.2629 11.568 56.2629 8.416V8.384C56.2629 5.232 53.8309 2.8 50.3109 2.8H46.7109V14ZM47.0629 13.68V3.12H50.2949C53.6069 3.12 55.9109 5.456 55.9109 8.4V8.432C55.9109 11.36 53.6229 13.68 50.3269 13.68H47.0629ZM59.1015 14H67.0055V13.68H59.4535V8.528H66.2375V8.208H59.4535V3.12H66.9255V2.8H59.1015V14ZM69.6796 14H70.0316V9.12H74.1436H74.1916L77.9036 14H78.3356L74.6076 9.104C76.7676 8.976 78.2716 7.856 78.2716 5.968V5.936C78.2716 5.072 77.9836 4.368 77.4716 3.856C76.7836 3.168 75.7116 2.8 74.2556 2.8H69.6796V14ZM70.0316 8.8V3.12H74.2236C76.5436 3.12 77.9196 4.176 77.9196 5.952V5.984C77.9196 7.568 76.6716 8.8 74.0796 8.8H70.0316Z" fill="white"/>
<defs>
<clipPath id="clip0">
<rect y="24" width="100.1" height="29.7" fill="white"/>
</clipPath>
</defs>
</svg>
