<svg width="101" height="54" viewBox="0 0 101 54" fill="none" xmlns="http://www.w3.org/2000/svg">
<g clip-path="url(#clip0)">
<path d="M64.1994 31.3C65.2994 29.3 68.9994 27 65.9994 27C64.0994 27 63.6994 27.5 62.2994 28.4C59.0994 30.2 57.0994 33.8 54.6994 32.9C48.6994 30.5 36.7994 27 35.3994 27C33.4994 27 32.8994 27.3 32.8994 28.1C32.8994 29.8 38.6994 29.4 46.0994 33.9C50.7994 36.8 51.9994 38.4 55.7994 41.5C57.1994 42.7 61.0994 44.7 61.9994 45.3L65.8994 37.1C64.8994 36.8 62.0994 35.4 64.1994 31.3Z" fill="white"/>
<path d="M99.1996 24H0.999594C-0.300406 24 -0.300406 24.3 0.899594 24.6L6.49959 26C7.69959 26.3 9.79959 26.6 11.0996 26.6H88.9996C90.2996 26.6 92.2996 26.3 93.5996 26L99.1996 24.6C100.5 24.3 100.4 24 99.1996 24Z" fill="white"/>
<path d="M73.3996 53.7L75.7996 40.7L67.3996 37.4L63.0996 46.9L73.3996 53.7Z" fill="white"/>
</g>
<path d="M26.784 14.192C30.24 14.192 32.752 11.584 32.752 8.4V8.368C32.752 5.184 30.272 2.608 26.816 2.608C23.36 2.608 20.848 5.216 20.848 8.4V8.432C20.848 11.616 23.328 14.192 26.784 14.192ZM26.816 11.92C24.832 11.92 23.424 10.32 23.424 8.4V8.368C23.424 6.448 24.8 4.88 26.784 4.88C28.768 4.88 30.176 6.48 30.176 8.4V8.432C30.176 10.352 28.8 11.92 26.816 11.92ZM34.9378 14H37.4018V10.416H39.3378L41.7378 14H44.6178L41.8818 10C43.3058 9.472 44.2818 8.336 44.2818 6.528V6.496C44.2818 5.44 43.9458 4.56 43.3218 3.936C42.5858 3.2 41.4818 2.8 40.0578 2.8H34.9378V14ZM37.4018 8.24V5.024H39.8498C41.0498 5.024 41.7858 5.568 41.7858 6.624V6.656C41.7858 7.6 41.0978 8.24 39.8978 8.24H37.4018ZM46.5003 14H50.8683C54.3883 14 56.8203 11.552 56.8203 8.4V8.368C56.8203 5.216 54.3883 2.8 50.8683 2.8H46.5003V14ZM50.8683 5.024C52.8843 5.024 54.2443 6.416 54.2443 8.4V8.432C54.2443 10.416 52.8843 11.776 50.8683 11.776H48.9643V5.024H50.8683ZM59.0159 14H67.5439V11.808H61.4639V9.456H66.7439V7.264H61.4639V4.992H67.4639V2.8H59.0159V14ZM69.7346 14H72.1986V10.416H74.1346L76.5346 14H79.4146L76.6786 10C78.1026 9.472 79.0786 8.336 79.0786 6.528V6.496C79.0786 5.44 78.7426 4.56 78.1186 3.936C77.3826 3.2 76.2786 2.8 74.8546 2.8H69.7346V14ZM72.1986 8.24V5.024H74.6466C75.8466 5.024 76.5826 5.568 76.5826 6.624V6.656C76.5826 7.6 75.8946 8.24 74.6946 8.24H72.1986Z" fill="white"/>
<defs>
<clipPath id="clip0">
<rect width="100.1" height="29.7" fill="white" transform="translate(0 24)"/>
</clipPath>
</defs>
</svg>
